<svg width="926" height="173" viewBox="0 0 926 173" fill="none" xmlns="http://www.w3.org/2000/svg">
<path d="M431.125 39.25H451.312V140H431.125V99.625H394.938V140H374.75V39.25H394.938V79.5625H431.125V39.25ZM514.253 141.938C485.503 141.938 461.94 118.438 461.94 89.75C461.94 60.8125 485.503 37.1875 514.315 37.1875C543.128 37.1875 566.753 60.8125 566.753 89.75C566.753 118.438 543.128 141.938 514.253 141.938ZM514.253 121.438C531.878 121.438 546.253 107.125 546.253 89.625C546.253 72 531.878 57.625 514.253 57.625C496.69 57.625 482.378 72 482.378 89.625C482.378 107.125 496.69 121.438 514.253 121.438ZM625.318 141.938C596.568 141.938 573.005 118.438 573.005 89.75C573.005 60.8125 596.568 37.1875 625.38 37.1875C654.193 37.1875 677.818 60.8125 677.818 89.75C677.818 118.438 654.193 141.938 625.318 141.938ZM625.318 121.438C642.943 121.438 657.318 107.125 657.318 89.625C657.318 72 642.943 57.625 625.318 57.625C607.755 57.625 593.443 72 593.443 89.625C593.443 107.125 607.755 121.438 625.318 121.438ZM745.008 39.25H766.695L719.57 142.5H718.82L671.883 39.25H693.32L719.133 97.75L745.008 39.25ZM835.01 59.1875H794.51V78.875H829.26V99.0625H794.51V119.875H835.01V140H774.26V39.25H835.01V59.1875ZM924.45 140H899.7L867.638 92.375V140H847.388L847.325 39.25H880.2C899.013 39.25 914.45 53.75 914.45 71.875C914.45 84.8125 906.638 96.125 895.825 99.9375L924.45 140ZM867.575 59.3125V84.625L880.575 84.6875C887.45 84.75 893.575 79.1875 893.575 72C893.575 64.8125 887.388 59.3125 880.575 59.3125H867.575Z" fill="white"/>
<path d="M25.25 142.25C16.75 142.25 9.1875 139.875 2.625 135.312L12.875 117.562C16.375 120.5 20.1875 122.062 25.375 122.062H25.8125C36.9375 122.062 45.875 112.625 45.875 101.75L45.5 39.25L65.75 39.3125L66.125 101.875C66.125 124.562 48.25 142.25 25.9375 142.25H25.25ZM128.128 141.938C99.3775 141.938 75.815 118.438 75.815 89.75C75.815 60.8125 99.3775 37.1875 128.19 37.1875C157.003 37.1875 180.628 60.8125 180.628 89.75C180.628 118.438 157.003 141.938 128.128 141.938ZM128.128 121.438C145.753 121.438 160.128 107.125 160.128 89.625C160.128 72 145.753 57.625 128.128 57.625C110.565 57.625 96.2525 72 96.2525 89.625C96.2525 107.125 110.565 121.438 128.128 121.438ZM221.443 142C204.943 142 192.755 135.125 186.005 122.625L202.193 111.25C206.63 118.375 213.068 121.625 221.755 121.625C231.255 121.625 237.63 117.75 237.63 112.375C237.63 105 225.568 99.1875 215.005 93.9375C203.693 88.3125 191.255 82.125 191.255 66.0625C191.255 48.625 206.005 37.125 224.505 37.125C238.255 37.125 249.63 42.8125 254.193 55L239.255 65.4375C236.255 59.4375 230.443 57 224.818 57C217.255 57 211.63 61.375 211.63 66.5625C211.63 72.5625 219.255 74.625 230.818 80.0625C247.505 87.9375 258.005 96.4375 258.005 111.938C258.005 130.312 243.005 142 221.443 142ZM324.07 39.25H344.258V140H324.07V99.625H287.883V140H267.695V39.25H287.883V79.5625H324.07V39.25Z" fill="#B1B0EC"/>
</svg>
